<svg width="200" height="200" viewBox="0 0 200 200" fill="none" xmlns="http://www.w3.org/2000/svg">
<path d="M0 0H200V200H0V0Z" fill="url(#paint0_linear)"/>
<path fill-rule="evenodd" clip-rule="evenodd" d="M84 66C84 61.5817 80.4183 58 76 58C71.5817 58 68 61.5817 68 66V84H50V81C50 77.6863 47.3137 75 44 75C40.6863 75 38 77.6863 38 81V132H50V103C50 98.0294 54.0294 94 59 94C63.9706 94 68 98.0294 68 103V132H84V108.523V99C84 90.1635 91.1634 83 100 83C108.837 83 116 90.1635 116 99V108.523V132H132V103C132 98.0294 136.029 94 141 94C145.971 94 150 98.0294 150 103V132H162V81C162 77.6863 159.314 75 156 75C152.686 75 150 77.6863 150 81V84H132V66C132 61.5817 128.418 58 124 58C119.582 58 116 61.5817 116 66V73.9913C114.823 73.9249 113.698 73.4846 112.712 72.8289C109.07 70.4095 104.7 69 100 69C95.3004 69 90.93 70.4095 87.2885 72.8289C86.3015 73.4846 85.1766 73.9249 84 73.9913V66Z" fill="#EEEEEE"/>
<rect x="68" y="118" width="16" height="14" fill="white"/>
<rect x="116" y="118" width="16" height="14" fill="white"/>
<rect x="150" y="118" width="12" height="14" fill="white"/>
<rect x="38" y="118" width="12" height="14" fill="white"/>
<rect x="152" y="81" width="8" height="36" fill="white"/>
<circle cx="156" cy="81" r="4" fill="white"/>
<rect x="118" y="66" width="12" height="51" fill="white"/>
<circle cx="124" cy="66" r="6" fill="white"/>
<rect x="70" y="66" width="12" height="51" fill="white"/>
<circle cx="76" cy="66" r="6" fill="white"/>
<rect x="40" y="81" width="8" height="36" fill="white"/>
<circle cx="44" cy="81" r="4" fill="white"/>
<g opacity="0.2">
<path fill-rule="evenodd" clip-rule="evenodd" d="M95.2887 74.4434C91.0485 75.252 87.1882 77.1315 84 79.7899V81.1112C87.1799 78.2651 91.1232 76.2545 95.4848 75.4242L95.2887 74.4434ZM104.515 75.4242L104.711 74.4434C108.951 75.252 112.812 77.1315 116 79.7899V81.1112C112.82 78.2651 108.877 76.2545 104.515 75.4242ZM95.8771 77.3858C91.2381 78.2653 87.1145 80.6014 84 83.9003V85.398C87.0454 81.8192 91.2702 79.2751 96.0733 78.3666L95.8771 77.3858ZM103.927 78.3666L104.123 77.3858C108.762 78.2653 112.886 80.6014 116 83.9003V85.398C112.955 81.8192 108.73 79.2751 103.927 78.3666ZM96.4656 80.3282C91.241 81.3111 86.7711 84.4326 84 88.7488V90.7457C86.5025 85.9048 91.1373 82.345 96.6618 81.309L96.4656 80.3282ZM103.338 81.309L103.534 80.3282C108.759 81.3111 113.229 84.4326 116 88.7488V90.7457C113.498 85.9048 108.863 82.345 103.338 81.309Z" fill="black"/>
<path d="M97.4138 83L95.6042 73.5H104.396L102.586 83H97.4138Z" stroke="black"/>
<path fill-rule="evenodd" clip-rule="evenodd" d="M141 88C144.377 88 147.493 89.1158 150 90.9989V92.2758C147.566 90.2314 144.427 89 141 89C137.573 89 134.434 90.2314 132 92.2758V90.9989C134.507 89.1158 137.623 88 141 88ZM142.719 91.1223C145.605 91.5363 148.159 92.9771 150 95.0625V96.6738C148.277 94.2271 145.581 92.5145 142.475 92.0981L142.719 91.1223ZM139.281 91.1223C136.395 91.5363 133.841 92.9771 132 95.0625V96.6738C133.723 94.2271 136.419 92.5145 139.525 92.0981L139.281 91.1223Z" fill="black"/>
<path d="M141.59 94.5H140.41L139.61 90.5H142.39L141.59 94.5Z" stroke="black"/>
<path fill-rule="evenodd" clip-rule="evenodd" d="M59 88C62.3768 88 65.493 89.1158 68 90.9989V92.2758C65.5665 90.2314 62.427 89 59 89C55.573 89 52.4335 90.2314 50 92.2758V90.9989C52.507 89.1158 55.6232 88 59 88ZM60.7194 91.1223C63.6051 91.5363 66.1593 92.9771 68 95.0625V96.6738C66.277 94.2271 63.5815 92.5145 60.4755 92.0981L60.7194 91.1223ZM57.2806 91.1223C54.3949 91.5363 51.8407 92.9771 50 95.0625V96.6738C51.723 94.2271 54.4185 92.5145 57.5245 92.0981L57.2806 91.1223Z" fill="black"/>
<path d="M59.5901 94.5H58.4099L57.6099 90.5H60.3901L59.5901 94.5Z" stroke="black"/>
<rect x="121" y="70" width="1" height="7" fill="black"/>
<rect x="73" y="70" width="1" height="7" fill="black"/>
<rect x="42" y="83" width="1" height="7" fill="black"/>
<rect x="154" y="83" width="1" height="7" fill="black"/>
<path d="M126 70H127V77H126V70Z" fill="black"/>
<rect x="78" y="70" width="1" height="7" fill="black"/>
<rect x="45" y="83" width="1" height="7" fill="black"/>
<rect x="157" y="83" width="1" height="7" fill="black"/>
<rect opacity="0.2" width="16" height="1" transform="matrix(1 0 0 -1 68 118)" fill="black"/>
<rect opacity="0.2" width="16" height="1" transform="matrix(1 0 0 -1 116 118)" fill="black"/>
<rect opacity="0.2" width="12" height="1" transform="matrix(1 0 0 -1 150 118)" fill="black"/>
<rect opacity="0.2" width="12" height="1" transform="matrix(1 0 0 -1 38 118)" fill="black"/>
</g>
<defs>
<linearGradient id="paint0_linear" x1="100" y1="200" x2="100" y2="4.24683e-07" gradientUnits="userSpaceOnUse">
<stop stop-color="#111111"/>
<stop offset="1" stop-color="#3D1600"/>
</linearGradient>
</defs>
</svg>
