<svg width="200" height="200" viewBox="0 0 200 200" fill="none" xmlns="http://www.w3.org/2000/svg">
<rect width="200" height="200" fill="url(#paint0_linear)"/>
<path fill-rule="evenodd" clip-rule="evenodd" d="M71 54C74.866 54 78 57.134 78 61V71.5022C84.0838 66.7987 91.7151 64 100 64C108.285 64 115.916 66.7987 122 71.5022V61C122 57.134 125.134 54 129 54C132.866 54 136 57.134 136 61V75H153V73C153 69.134 156.134 66 160 66C163.866 66 167 69.134 167 73V99H153H152.986C152.995 98.8346 153 98.6678 153 98.5C153 93.8056 149.194 90 144.5 90C139.806 90 136 93.8056 136 98.5C136 98.6678 136.005 98.8346 136.014 99H136H122H121.978C121.509 88.5226 113.712 79.952 103.589 78.2912L104.875 68L105 67H103.992H96.0078H95L95.125 68L96.4114 78.2912C86.2883 79.952 78.491 88.5226 78.0223 99H78H64H63.9855C63.9951 98.8346 64 98.6678 64 98.5C64 93.8056 60.1944 90 55.5 90C50.8056 90 47 93.8056 47 98.5C47 98.6678 47.0049 98.8346 47.0145 99H47H33V73C33 69.134 36.134 66 40 66C43.866 66 47 69.134 47 73V75H64V61C64 57.134 67.134 54 71 54ZM167 104V105H166H154H153V104V101V100H154H166H167V101V104ZM167 119V106H153V119H167ZM122 106V119H136V106H122ZM136 105V104V101V100H135H123H122V101V104V105H123H135H136ZM78 104V105H77H65H64V104V101V100H65H77H78V101V104ZM78 119V106H64V119H78ZM33 100V101V104V105H34H46H47V104V101V100H46H34H33ZM33 106V119H47V106H33ZM102.617 78H100H97.3828L96.1328 68H103.867L102.617 78ZM144.5 84C147.444 84 150.183 84.8772 152.469 86.3844L151.954 87.2428C149.818 85.8256 147.256 85 144.5 85C141.744 85 139.182 85.8256 137.046 87.2429L136.531 86.3845C138.817 84.8772 141.556 84 144.5 84ZM144.5 87C147.471 87 150.179 88.1265 152.219 89.9757L151.593 90.7582C149.725 89.0453 147.235 88 144.5 88C141.765 88 139.275 89.0454 137.407 90.7583L136.781 89.9758C138.821 88.1265 141.529 87 144.5 87ZM63.4693 86.3845C61.1825 84.8772 58.4437 84 55.4999 84C52.5563 84 49.8175 84.8772 47.5307 86.3844L48.0457 87.2428C50.1817 85.8256 52.7444 85 55.4999 85C58.2555 85 60.8182 85.8256 62.9543 87.2429L63.4693 86.3845ZM63.2194 89.9757C61.1786 88.1265 58.4709 87 55.5 87C52.5291 87 49.8214 88.1265 47.7806 89.9757L48.4066 90.7582C50.275 89.0453 52.7654 88 55.5 88C58.2346 88 60.725 89.0453 62.5934 90.7582L63.2194 89.9757ZM78.7576 81.7576C82.7931 77.0627 88.3585 73.7206 94.6803 72.5047L94.8046 73.4994C88.7099 74.6874 83.3482 77.9255 79.4668 82.4668L78.7576 81.7576ZM78.8615 86.6462C82.4489 80.9793 88.2522 76.8544 95.0534 75.4893L95.1778 76.4846C88.6533 77.8155 83.0919 81.7936 79.6643 87.2482L78.8615 86.6462ZM120.336 87.2482C116.908 81.7936 111.347 77.8155 104.822 76.4846L104.947 75.4893C111.748 76.8544 117.551 80.9793 121.138 86.6461L120.336 87.2482ZM120.533 82.4668C116.652 77.9255 111.29 74.6873 105.195 73.4994L105.32 72.5047C111.642 73.7206 117.207 77.0626 121.242 81.7576L120.533 82.4668ZM69 65H68V71H69V65ZM37 77H38V83H37V77ZM158 77H157V83H158V77ZM126 65H127V71H126V65ZM74 65H73V71H74V65ZM42 77H43V83H42V77ZM163 77H162V83H163V77ZM131 65H132V71H131V65ZM44 103V102H36V103H44ZM75 102V103H67V102H75ZM133 103V102H125V103H133ZM164 102V103H156V102H164ZM32 134V120H48V134H32ZM63 134V120H79V134H63ZM121 134V120H137V134H121ZM168 134V120H152V134H168Z" fill="white"/>
<defs>
<linearGradient id="paint0_linear" x1="100" y1="200" x2="100" y2="4.24683e-07" gradientUnits="userSpaceOnUse">
<stop stop-color="#111111"/>
<stop offset="1" stop-color="#3D1600"/>
</linearGradient>
</defs>
</svg>
