<?xml version="1.0" standalone="no"?>
<!DOCTYPE svg PUBLIC "-//W3C//DTD SVG 20010904//EN"
 "http://www.w3.org/TR/2001/REC-SVG-20010904/DTD/svg10.dtd">
<svg version="1.0" xmlns="http://www.w3.org/2000/svg"
 width="192.000000pt" height="192.000000pt" viewBox="0 0 192.000000 192.000000"
 preserveAspectRatio="xMidYMid meet">
<metadata>
Created by potrace 1.11, written by Peter Selinger 2001-2013
</metadata>
<g transform="translate(0.000000,192.000000) scale(0.100000,-0.100000)"
fill="#000000" stroke="none">
<path d="M930 1901 c-5 -11 -10 -46 -10 -79 l0 -60 -37 -7 c-53 -10 -108 -40
-160 -88 -39 -36 -83 -101 -83 -124 0 -5 144 -8 320 -8 218 0 320 3 320 11 0
20 -57 99 -95 133 -42 36 -133 81 -165 81 -11 0 -20 6 -21 13 0 6 -2 38 -2 70
-1 39 -7 61 -17 67 -23 15 -38 12 -50 -9z"/>
<path d="M593 1452 c-23 -14 -20 -58 5 -66 15 -5 17 -21 16 -161 -1 -86 2
-157 6 -160 4 -2 21 1 39 8 l31 11 0 148 0 148 40 0 39 0 0 -117 c-1 -156 -4
-144 29 -137 15 4 31 10 36 15 5 4 9 60 9 123 l1 116 38 0 38 0 0 -99 0 -98
39 0 40 0 -1 76 c-1 130 -3 123 40 119 l37 -3 0 -113 c0 -120 0 -120 53 -136
l22 -7 0 130 0 131 40 0 40 0 0 -148 0 -148 33 -12 c18 -7 35 -12 38 -12 2 0
4 69 4 154 0 132 3 157 18 174 21 23 22 58 1 66 -23 9 -717 7 -731 -2z"/>
<path d="M576 969 c-198 -77 -365 -144 -373 -150 -19 -16 -18 -172 1 -191 11
-12 138 -14 759 -14 410 1 749 5 754 9 4 5 8 50 8 100 l0 92 -37 17 c-82 39
-715 278 -733 277 -11 0 -182 -63 -379 -140z"/>
<path d="M270 281 c0 -187 3 -260 12 -269 17 -17 469 -17 486 0 8 8 12 55 12
143 0 105 4 138 19 170 53 115 195 140 285 50 42 -42 48 -69 51 -219 3 -102 7
-141 17 -147 22 -14 472 -11 486 3 9 9 12 82 12 269 l0 256 -690 0 -690 0 0
-256z"/>
</g>
</svg>
